<svg xmlns="http://www.w3.org/2000/svg" width="17" height="14" viewBox="0 0 17 14" fill="none">
  <path d="M15 0H1.25C0.918479 0 0.600537 0.131696 0.366116 0.366116C0.131696 0.600537 0 0.918479 0 1.25V12.5C0 12.8315 0.131696 13.1495 0.366116 13.3839C0.600537 13.6183 0.918479 13.75 1.25 13.75H15C15.3315 13.75 15.6495 13.6183 15.8839 13.3839C16.1183 13.1495 16.25 12.8315 16.25 12.5V1.25C16.25 0.918479 16.1183 0.600537 15.8839 0.366116C15.6495 0.131696 15.3315 0 15 0ZM15 12.5H1.25V1.25H15V12.5ZM11.875 3.75C11.875 4.74456 11.4799 5.69839 10.7767 6.40165C10.0734 7.10491 9.11956 7.5 8.125 7.5C7.13044 7.5 6.17661 7.10491 5.47335 6.40165C4.77009 5.69839 4.375 4.74456 4.375 3.75C4.375 3.58424 4.44085 3.42527 4.55806 3.30806C4.67527 3.19085 4.83424 3.125 5 3.125C5.16576 3.125 5.32473 3.19085 5.44194 3.30806C5.55915 3.42527 5.625 3.58424 5.625 3.75C5.625 4.41304 5.88839 5.04893 6.35723 5.51777C6.82607 5.98661 7.46196 6.25 8.125 6.25C8.78804 6.25 9.42393 5.98661 9.89277 5.51777C10.3616 5.04893 10.625 4.41304 10.625 3.75C10.625 3.58424 10.6908 3.42527 10.8081 3.30806C10.9253 3.19085 11.0842 3.125 11.25 3.125C11.4158 3.125 11.5747 3.19085 11.6919 3.30806C11.8092 3.42527 11.875 3.58424 11.875 3.75Z" fill="black"/>
</svg>