<svg xmlns="http://www.w3.org/2000/svg" width="20" height="20" viewBox="0 0 20 20" fill="none">
  <path d="M16.1469 5.12734C14.5492 4.32891 12.4219 3.90625 10 3.90625C7.57812 3.90625 5.45078 4.32891 3.85313 5.12734C2.29766 5.90469 1.40625 6.99766 1.40625 8.125V11.875C1.40625 13.0023 2.29766 14.0953 3.85313 14.8727C5.45078 15.6711 7.57812 16.0938 10 16.0938C12.4219 16.0938 14.5492 15.6711 16.1469 14.8727C17.7023 14.0953 18.5938 13.0023 18.5938 11.875V8.125C18.5938 6.99766 17.7023 5.90469 16.1469 5.12734ZM4.27187 5.96641C5.71953 5.24219 7.75391 4.84375 10 4.84375C12.2461 4.84375 14.2805 5.24219 15.7281 5.96641C16.9531 6.57891 17.6562 7.36563 17.6562 8.125C17.6562 8.88438 16.9531 9.67109 15.7281 10.2836C14.2805 11.0078 12.2461 11.4063 10 11.4063C7.75391 11.4063 5.71953 11.0078 4.27187 10.2836C3.04688 9.67109 2.34375 8.88438 2.34375 8.125C2.34375 7.36563 3.04688 6.57891 4.27187 5.96641ZM9.53125 12.3383V15.1508C8.02812 15.1133 6.63516 14.8945 5.46875 14.5172V11.7516C6.66172 12.1039 8.03516 12.3039 9.53125 12.3383ZM10.4688 12.3383C11.9648 12.3039 13.3383 12.1039 14.5312 11.7508V14.5164C13.3648 14.8938 11.9719 15.1125 10.4688 15.15V12.3383ZM2.34375 11.875V10.0781C2.78974 10.5022 3.29895 10.8543 3.85313 11.1219C4.06979 11.2297 4.29583 11.3307 4.53125 11.425V14.1594C4.44297 14.1188 4.35625 14.0813 4.27187 14.0359C3.04688 13.4211 2.34375 12.6344 2.34375 11.875ZM15.7281 14.0336C15.6438 14.0758 15.557 14.1164 15.4688 14.157V11.4227C15.7036 11.3284 15.9297 11.2273 16.1469 11.1195C16.7009 10.8527 17.2101 10.5013 17.6562 10.0781V11.875C17.6562 12.6344 16.9531 13.4211 15.7281 14.0336Z" fill="#919BAB"/>
</svg>