<svg xmlns="http://www.w3.org/2000/svg" width="14" height="14" viewBox="0 0 14 14" fill="none">
  <path d="M4.84375 0H1.09375C0.803669 0 0.52547 0.115234 0.320352 0.320352C0.115234 0.52547 0 0.803669 0 1.09375V4.84375C0 4.98738 0.0282906 5.12961 0.0832567 5.26231C0.138223 5.39501 0.218788 5.51558 0.320352 5.61715C0.421916 5.71871 0.54249 5.79928 0.67519 5.85424C0.80789 5.90921 0.950117 5.9375 1.09375 5.9375H4.84375C4.98738 5.9375 5.12961 5.90921 5.26231 5.85424C5.39501 5.79928 5.51558 5.71871 5.61715 5.61715C5.71871 5.51558 5.79928 5.39501 5.85424 5.26231C5.90921 5.12961 5.9375 4.98738 5.9375 4.84375V1.09375C5.9375 0.950117 5.90921 0.80789 5.85424 0.67519C5.79928 0.54249 5.71871 0.421916 5.61715 0.320352C5.51558 0.218788 5.39501 0.138223 5.26231 0.0832567C5.12961 0.0282906 4.98738 0 4.84375 0ZM5 4.84375C5 4.88519 4.98354 4.92493 4.95424 4.95424C4.92493 4.98354 4.88519 5 4.84375 5H1.09375C1.05231 5 1.01257 4.98354 0.983264 4.95424C0.953962 4.92493 0.9375 4.88519 0.9375 4.84375V1.09375C0.9375 1.05231 0.953962 1.01257 0.983264 0.983264C1.01257 0.953962 1.05231 0.9375 1.09375 0.9375H4.84375C4.88519 0.9375 4.92493 0.953962 4.95424 0.983264C4.98354 1.01257 5 1.05231 5 1.09375V4.84375ZM12.3438 0H8.59375C8.30367 0 8.02547 0.115234 7.82035 0.320352C7.61523 0.52547 7.5 0.803669 7.5 1.09375V4.84375C7.5 4.98738 7.52829 5.12961 7.58326 5.26231C7.63822 5.39501 7.71879 5.51558 7.82035 5.61715C7.92192 5.71871 8.04249 5.79928 8.17519 5.85424C8.30789 5.90921 8.45012 5.9375 8.59375 5.9375H12.3438C12.4874 5.9375 12.6296 5.90921 12.7623 5.85424C12.895 5.79928 13.0156 5.71871 13.1171 5.61715C13.2187 5.51558 13.2993 5.39501 13.3542 5.26231C13.4092 5.12961 13.4375 4.98738 13.4375 4.84375V1.09375C13.4375 0.803669 13.3223 0.52547 13.1171 0.320352C12.912 0.115234 12.6338 0 12.3438 0ZM12.5 4.84375C12.5 4.88519 12.4835 4.92493 12.4542 4.95424C12.4249 4.98354 12.3852 5 12.3438 5H8.59375C8.55231 5 8.51257 4.98354 8.48326 4.95424C8.45396 4.92493 8.4375 4.88519 8.4375 4.84375V1.09375C8.4375 1.05231 8.45396 1.01257 8.48326 0.983264C8.51257 0.953962 8.55231 0.9375 8.59375 0.9375H12.3438C12.3852 0.9375 12.4249 0.953962 12.4542 0.983264C12.4835 1.01257 12.5 1.05231 12.5 1.09375V4.84375ZM4.84375 7.5H1.09375C0.803669 7.5 0.52547 7.61523 0.320352 7.82035C0.115234 8.02547 0 8.30367 0 8.59375V12.3438C0 12.6338 0.115234 12.912 0.320352 13.1171C0.52547 13.3223 0.803669 13.4375 1.09375 13.4375H4.84375C4.98738 13.4375 5.12961 13.4092 5.26231 13.3542C5.39501 13.2993 5.51558 13.2187 5.61715 13.1171C5.71871 13.0156 5.79928 12.895 5.85424 12.7623C5.90921 12.6296 5.9375 12.4874 5.9375 12.3438V8.59375C5.9375 8.45012 5.90921 8.30789 5.85424 8.17519C5.79928 8.04249 5.71871 7.92192 5.61715 7.82035C5.51558 7.71879 5.39501 7.63822 5.26231 7.58326C5.12961 7.52829 4.98738 7.5 4.84375 7.5ZM5 12.3438C5 12.3852 4.98354 12.4249 4.95424 12.4542C4.92493 12.4835 4.88519 12.5 4.84375 12.5H1.09375C1.05231 12.5 1.01257 12.4835 0.983264 12.4542C0.953962 12.4249 0.9375 12.3852 0.9375 12.3438V8.59375C0.9375 8.55231 0.953962 8.51257 0.983264 8.48326C1.01257 8.45396 1.05231 8.4375 1.09375 8.4375H4.84375C4.88519 8.4375 4.92493 8.45396 4.95424 8.48326C4.98354 8.51257 5 8.55231 5 8.59375V12.3438ZM12.3438 7.5H8.59375C8.30367 7.5 8.02547 7.61523 7.82035 7.82035C7.61523 8.02547 7.5 8.30367 7.5 8.59375V12.3438C7.5 12.6338 7.61523 12.912 7.82035 13.1171C8.02547 13.3223 8.30367 13.4375 8.59375 13.4375H12.3438C12.6338 13.4375 12.912 13.3223 13.1171 13.1171C13.3223 12.912 13.4375 12.6338 13.4375 12.3438V8.59375C13.4375 8.30367 13.3223 8.02547 13.1171 7.82035C12.912 7.61523 12.6338 7.5 12.3438 7.5ZM12.5 12.3438C12.5 12.3852 12.4835 12.4249 12.4542 12.4542C12.4249 12.4835 12.3852 12.5 12.3438 12.5H8.59375C8.55231 12.5 8.51257 12.4835 8.48326 12.4542C8.45396 12.4249 8.4375 12.3852 8.4375 12.3438V8.59375C8.4375 8.55231 8.45396 8.51257 8.48326 8.48326C8.51257 8.45396 8.55231 8.4375 8.59375 8.4375H12.3438C12.3852 8.4375 12.4249 8.45396 12.4542 8.48326C12.4835 8.51257 12.5 8.55231 12.5 8.59375V12.3438Z" fill="black"/>
</svg>