<svg xmlns="http://www.w3.org/2000/svg" width="20" height="20" viewBox="0 0 20 20" fill="none">
  <path d="M19.0813 4.68747C18.9913 4.63132 18.8885 4.59899 18.7826 4.59352C18.6766 4.58805 18.5711 4.60963 18.4758 4.65622C15.1219 6.29685 12.7266 5.5281 10.1945 4.71716C7.53828 3.86638 4.78438 2.98747 0.979688 4.84529C0.873383 4.89628 0.78367 4.9763 0.720909 5.07611C0.658148 5.17592 0.624898 5.29145 0.625 5.40935V14.7789C0.624985 14.8849 0.651952 14.9892 0.703363 15.082C0.754774 15.1747 0.828938 15.2529 0.918875 15.309C1.00881 15.3652 1.11157 15.3976 1.21747 15.4031C1.32337 15.4086 1.42893 15.3871 1.52422 15.3406C4.87813 13.7 7.27344 14.4687 9.80937 15.2797C11.3125 15.7601 12.8438 16.25 14.575 16.25C15.9102 16.25 17.3664 15.9593 19.0211 15.1515C19.1262 15.1002 19.2148 15.0204 19.2768 14.9213C19.3388 14.8221 19.3717 14.7076 19.3719 14.5906V5.22107C19.3728 5.11475 19.3466 5.00995 19.2958 4.91658C19.2449 4.82321 19.1711 4.74435 19.0813 4.68747ZM18.125 14.1929C14.9531 15.6125 12.6367 14.8719 10.1906 14.0898C8.6875 13.6094 7.15625 13.1195 5.425 13.1195C4.20867 13.1254 3.00472 13.3641 1.87813 13.8226V5.80701C5.05 4.38747 7.36641 5.1281 9.8125 5.91013C12.2586 6.69216 14.7766 7.49997 18.125 6.17888V14.1929ZM10 7.49997C9.50555 7.49997 9.0222 7.6466 8.61107 7.9213C8.19995 8.196 7.87952 8.58645 7.6903 9.04327C7.50108 9.50008 7.45157 10.0027 7.54804 10.4877C7.6445 10.9727 7.8826 11.4181 8.23223 11.7677C8.58186 12.1174 9.02732 12.3555 9.51227 12.4519C9.99723 12.5484 10.4999 12.4989 10.9567 12.3097C11.4135 12.1205 11.804 11.8 12.0787 11.3889C12.3534 10.9778 12.5 10.4944 12.5 9.99997C12.5 9.33693 12.2366 8.70105 11.7678 8.23221C11.2989 7.76337 10.663 7.49997 10 7.49997ZM10 11.25C9.75277 11.25 9.5111 11.1767 9.30554 11.0393C9.09998 10.902 8.93976 10.7067 8.84515 10.4783C8.75054 10.2499 8.72579 9.99859 8.77402 9.75611C8.82225 9.51364 8.9413 9.29091 9.11612 9.11609C9.29093 8.94128 9.51366 8.82222 9.75614 8.77399C9.99861 8.72576 10.2499 8.75052 10.4784 8.84513C10.7068 8.93973 10.902 9.09995 11.0393 9.30551C11.1767 9.51107 11.25 9.75275 11.25 9.99997C11.25 10.3315 11.1183 10.6494 10.8839 10.8839C10.6495 11.1183 10.3315 11.25 10 11.25ZM4.375 7.49997V11.25C4.375 11.4157 4.30915 11.5747 4.19194 11.6919C4.07473 11.8091 3.91576 11.875 3.75 11.875C3.58424 11.875 3.42527 11.8091 3.30806 11.6919C3.19085 11.5747 3.125 11.4157 3.125 11.25V7.49997C3.125 7.33421 3.19085 7.17524 3.30806 7.05803C3.42527 6.94082 3.58424 6.87497 3.75 6.87497C3.91576 6.87497 4.07473 6.94082 4.19194 7.05803C4.30915 7.17524 4.375 7.33421 4.375 7.49997ZM15.625 12.5V8.74997C15.625 8.58421 15.6908 8.42524 15.8081 8.30803C15.9253 8.19082 16.0842 8.12497 16.25 8.12497C16.4158 8.12497 16.5747 8.19082 16.6919 8.30803C16.8092 8.42524 16.875 8.58421 16.875 8.74997V12.5C16.875 12.6657 16.8092 12.8247 16.6919 12.9419C16.5747 13.0591 16.4158 13.125 16.25 13.125C16.0842 13.125 15.9253 13.0591 15.8081 12.9419C15.6908 12.8247 15.625 12.6657 15.625 12.5Z" fill="#919BAB"/>
</svg>